<svg xmlns="http://www.w3.org/2000/svg" viewBox="0 0 64 64" role="img" aria-label="Visual Studio Code">
  <rect width="64" height="64" rx="14" fill="#EAF6FF"/>
  <path fill="#007ACC" d="M48.5 10.8 24.4 32l24.1 21.2c1.6 1.4 4.1.3 4.1-1.9V12.7c0-2.2-2.5-3.3-4.1-1.9Z"/>
  <path fill="#1F9CF0" d="M24.4 32 11.8 22.4c-1-.8-2.4-.7-3.3.2l-2.7 2.5c-1.1 1-1 2.7.2 3.6L15.6 36 6 43.3c-1.2.9-1.3 2.6-.2 3.6l2.7 2.5c.9.9 2.3 1 3.3.2L24.4 40l24.1 13.2V10.8L24.4 32Z" opacity=".9"/>
  <path fill="#fff" opacity=".28" d="M48.6 18.8v26.4L31.7 32l16.9-13.2Z"/>
</svg>
